<?xml version="1.0" standalone="no"?>
<!DOCTYPE svg PUBLIC "-//W3C//DTD SVG 20010904//EN"
 "http://www.w3.org/TR/2001/REC-SVG-20010904/DTD/svg10.dtd">
<svg version="1.0" xmlns="http://www.w3.org/2000/svg"
 width="359.000000pt" height="572.000000pt" viewBox="0 0 359.000000 572.000000"
 preserveAspectRatio="xMidYMid meet">

<g transform="translate(0.000000,572.000000) scale(0.100000,-0.100000)"
fill="#000000" stroke="none">
<path d="M2539 4540 c-31 -25 -23 -25 26 0 29 15 33 20 18 20 -11 0 -31 -9
-44 -20z"/>
<path d="M2335 4524 c-36 -18 -93 -71 -106 -99 -6 -11 0 -8 11 8 28 35 94 74
141 82 27 5 50 1 84 -14 36 -16 44 -17 34 -5 -35 43 -111 56 -164 28z"/>
<path d="M1952 4520 c-33 -14 -89 -58 -96 -76 -4 -10 5 -6 24 9 53 45 114 62
181 51 62 -11 67 -4 10 15 -40 13 -87 13 -119 1z"/>
<path d="M2750 4500 c0 -5 7 -10 16 -10 8 0 12 5 9 10 -3 6 -10 10 -16 10 -5
0 -9 -4 -9 -10z"/>
<path d="M2510 4463 c1 -11 49 -100 50 -91 0 11 -39 98 -45 98 -3 0 -5 -3 -5
-7z"/>
<path d="M2562 4259 c-57 -72 -102 -133 -99 -135 3 -3 47 49 99 116 l93 121
68 -7 c74 -7 87 0 30 15 -93 24 -79 33 -191 -110z"/>
<path d="M1635 4313 c-75 -30 -155 -95 -182 -147 -11 -22 -1 -15 38 26 58 58
139 103 208 114 23 4 44 11 47 15 9 15 -68 9 -111 -8z"/>
<path d="M2840 4195 c-13 -14 -19 -25 -13 -25 12 0 48 38 41 45 -2 3 -15 -6
-28 -20z"/>
<path d="M1320 4170 c0 -8 5 -22 10 -30 9 -13 10 -13 10 0 0 8 -5 22 -10 30
-9 13 -10 13 -10 0z"/>
<path d="M2730 4121 c-14 -5 -48 -20 -77 -35 -46 -23 -64 -26 -151 -26 l-100
0 -133 -162 c-163 -200 -154 -188 -141 -188 5 0 68 72 139 160 l128 160 96 0
c96 0 98 1 183 46 47 25 86 48 86 50 0 2 -1 4 -2 3 -2 0 -14 -4 -28 -8z"/>
<path d="M2880 4072 c30 -27 57 -48 59 -46 10 9 -31 51 -70 73 l-44 24 55 -51z"/>
<path d="M2151 4064 c-1 -15 30 -106 35 -101 2 2 -5 28 -15 58 -11 30 -20 49
-20 43z"/>
<path d="M1175 3962 c-33 -20 -95 -87 -95 -102 0 -18 15 -10 34 18 24 37 79
72 111 72 14 0 40 -7 56 -16 32 -16 46 -14 34 6 -9 15 -68 40 -92 40 -10 0
-32 -8 -48 -18z"/>
<path d="M2980 3919 c-30 -12 -65 -48 -55 -57 4 -4 10 -1 12 6 3 7 22 22 44
32 54 28 53 40 -1 19z"/>
<path d="M2839 3820 l-24 -21 33 7 c29 5 39 1 68 -27 46 -45 52 -32 8 19 -40
48 -52 50 -85 22z"/>
<path d="M1731 3794 c0 -11 3 -14 6 -6 3 7 2 16 -1 19 -3 4 -6 -2 -5 -13z"/>
<path d="M2678 3740 c-187 -82 -312 -111 -502 -114 l-130 -3 -34 -39 c-107
-123 -232 -285 -218 -282 10 1 68 66 130 143 l113 140 144 6 c178 8 324 41
453 103 75 35 156 86 136 85 -3 0 -44 -18 -92 -39z"/>
<path d="M1740 3752 c0 -22 51 -196 61 -207 6 -6 9 -6 9 0 0 16 -69 221 -70
207z"/>
<path d="M1011 3733 c-1 -6 -4 -20 -7 -30 -5 -17 -5 -17 6 0 6 10 9 23 6 30
-3 9 -5 9 -5 0z"/>
<path d="M1321 3674 c0 -11 3 -14 6 -6 3 7 2 16 -1 19 -3 4 -6 -2 -5 -13z"/>
<path d="M1060 3649 c-18 -33 -6 -42 13 -9 10 16 14 30 8 30 -6 0 -15 -9 -21
-21z"/>
<path d="M1336 3597 c7 -74 44 -225 84 -346 17 -51 29 -95 27 -97 -9 -9 -116
50 -171 94 -16 12 -35 22 -42 22 -8 0 -14 4 -14 8 0 5 -10 14 -22 21 -13 6
-36 20 -53 31 -16 11 -40 25 -52 31 -17 9 -24 24 -29 61 -4 26 -10 48 -14 48
-10 0 15 -131 41 -210 21 -66 127 -289 155 -325 15 -20 16 -19 45 15 110 126
146 167 164 185 l20 20 -48 143 c-27 78 -59 190 -73 250 -18 82 -22 93 -18 49z"/>
<path d="M976 3615 c-9 -26 -7 -32 5 -12 6 10 9 21 6 23 -2 3 -7 -2 -11 -11z"/>
<path d="M2930 3577 c-13 -17 -38 -45 -56 -60 -33 -28 -70 -77 -59 -77 13 0
118 106 132 133 21 41 11 43 -17 4z"/>
<path d="M1047 3593 c-4 -3 -7 -13 -7 -22 1 -13 3 -13 11 2 11 19 8 33 -4 20z"/>
<path d="M966 3563 c-6 -14 -5 -15 5 -6 7 7 10 15 7 18 -3 3 -9 -2 -12 -12z"/>
<path d="M890 3540 c-1 -8 -2 -20 -1 -27 3 -22 -16 -22 -39 -1 -22 21 -23 21
-36 3 -16 -22 -79 -181 -123 -313 -103 -309 -167 -669 -169 -957 l-2 -150 135
140 134 139 -16 36 c-8 19 -31 80 -51 135 -34 95 -36 106 -36 230 0 115 2 136
23 183 13 29 34 61 47 71 22 17 24 26 22 92 -3 140 30 261 94 341 21 27 28 45
25 65 -2 16 -5 21 -7 13z"/>
<path d="M944 3526 c1 -29 26 -33 25 -4 0 21 -1 22 -8 3 l-9 -20 -4 20 c-5 18
-5 18 -4 1z"/>
<path d="M953 3462 c-48 -7 -91 -111 -100 -239 -8 -122 21 -239 103 -402 35
-71 71 -134 78 -140 11 -9 26 2 72 56 33 37 63 71 69 75 5 4 -10 46 -37 100
-91 181 -140 332 -155 478 -7 70 -10 75 -30 72z"/>
<path d="M2898 3425 c-20 -8 -58 -17 -85 -21 -31 -5 -69 -22 -112 -52 -37 -24
-67 -48 -69 -53 -9 -22 38 -5 86 31 29 22 61 40 71 40 29 0 144 38 166 54 20
15 20 15 0 15 -11 0 -37 -7 -57 -14z"/>
<path d="M2504 3255 c-149 -58 -384 -83 -607 -66 -84 7 -161 14 -172 17 -16 4
-41 -21 -124 -121 -56 -70 -101 -128 -99 -131 3 -2 56 -17 119 -34 161 -42
343 -65 385 -49 11 5 -9 8 -51 8 -82 1 -126 12 -155 39 -11 10 -33 25 -48 32
-15 8 -34 19 -42 26 -8 6 -35 22 -60 35 -25 13 -46 24 -48 25 -2 1 21 32 50
68 41 52 57 66 73 62 11 -2 61 -7 110 -11 285 -20 481 -1 670 66 l80 28 32
-25 c30 -23 33 -23 33 -6 0 19 -50 62 -72 61 -7 0 -40 -11 -74 -24z"/>
<path d="M2711 3186 c-34 -12 -54 -36 -31 -36 18 0 70 30 70 40 0 6 -1 10 -2
9 -2 0 -18 -6 -37 -13z"/>
<path d="M2633 3076 c-44 -62 -121 -120 -224 -169 -49 -23 -88 -45 -89 -49 0
-19 68 -5 119 23 106 59 206 156 225 217 11 32 4 27 -31 -22z"/>
<path d="M761 2961 c-42 -99 -23 -271 50 -445 l33 -78 35 39 c19 21 47 52 63
69 l28 30 -45 80 c-49 86 -97 201 -120 291 -8 31 -16 58 -18 60 -3 2 -14 -19
-26 -46z"/>
<path d="M2038 2873 c6 -2 18 -2 25 0 6 3 1 5 -13 5 -14 0 -19 -2 -12 -5z"/>
<path d="M2088 2873 c6 -2 18 -2 25 0 6 3 1 5 -13 5 -14 0 -19 -2 -12 -5z"/>
<path d="M1294 2731 l-114 -126 72 -23 c276 -88 542 -86 711 5 58 32 167 128
167 148 0 7 -13 25 -30 38 -29 25 -32 25 -157 20 -148 -6 -295 7 -436 41 l-98
23 -115 -126z m787 8 l24 -20 -30 17 c-39 24 -40 24 -28 24 6 0 21 -9 34 -21z"/>
<path d="M2178 2823 l-58 -15 17 -29 c18 -31 28 -35 38 -19 4 6 3 10 -2 9 -33
-6 -19 5 22 16 42 11 65 11 145 -1 110 -16 170 -18 170 -5 0 14 -10 18 -65 25
-27 3 -72 10 -100 16 -91 19 -109 19 -167 3z"/>
<path d="M2198 2763 c6 -2 18 -2 25 0 6 3 1 5 -13 5 -14 0 -19 -2 -12 -5z"/>
<path d="M2198 2722 c-32 -8 -58 -18 -58 -22 0 -5 -20 -33 -45 -63 -88 -108
-212 -168 -391 -189 -82 -9 -93 -13 -103 -35 -14 -31 -15 -30 19 -25 17 2 30
0 30 -6 0 -16 -16 -23 -53 -24 -17 0 -50 -11 -72 -24 -51 -29 -143 -52 -237
-60 -70 -6 -130 0 -283 27 l-70 12 -200 -202 c-110 -112 -226 -226 -259 -254
-56 -49 -60 -51 -120 -51 -33 0 -77 3 -96 7 -32 6 -71 -5 -60 -17 13 -12 167
-25 198 -17 18 6 70 39 115 74 97 76 107 81 268 145 147 59 287 95 447 117
241 33 429 91 667 204 158 76 291 152 382 220 l62 46 -55 31 c-30 17 -60 36
-67 43 -17 17 -55 13 -66 -6 -6 -10 -11 -13 -11 -7 0 17 20 30 73 44 26 7 50
17 53 22 13 20 -13 24 -68 10z"/>
<path d="M1056 2458 c-30 -35 -56 -67 -56 -72 -1 -13 75 -32 184 -46 173 -23
334 11 394 83 11 13 4 16 -65 22 -91 8 -256 38 -327 60 -27 8 -55 15 -62 15
-7 0 -38 -28 -68 -62z"/>
</g>
</svg>
